<svg xmlns="http://www.w3.org/2000/svg" width="19" height="25" viewBox="0 0 19 25">
    <path fill="#202344" d="M9.463.527c.99 0 1.778.788 1.778 1.778l.001 1.092c1.295.635 2.21 2.006 2.21 3.556 0 .635-.153 1.218-.407 1.752l3.276 6.985c.381-.153.762-.33 1.143-.534.279-.153.66-.05.813.254.151.305.024.66-.307.814-.38.203-.762.38-1.169.558l.686 1.448c.05.076.05.177.05.254l-.355 5.688c-.024.254-.203.431-.431.482h-.101c-.178 0-.381-.127-.458-.304l-2.997-6.426c-1.016.202-2.056.33-3.098.355v.889c0 .33-.279.609-.609.609-.33 0-.61-.279-.61-.61v-.888c-1.04-.025-2.081-.152-3.097-.355l-2.997 6.399c-.077.203-.254.304-.458.304h-.1c-.255-.05-.407-.254-.432-.482l-.356-5.688c0-.102.025-.178.051-.254l.686-1.448c-.406-.177-.813-.355-1.194-.558-.304-.152-.407-.508-.254-.813.152-.304.508-.407.813-.254.38.204.762.381 1.142.534l3.201-6.985c-.254-.533-.407-1.117-.407-1.752 0-1.55.89-2.895 2.21-3.556V2.305c0-.99.812-1.778 1.777-1.778zM3.115 17.162L2.48 18.56l.228 3.53L4.74 17.67c-.533-.153-1.091-.305-1.625-.508zm12.75 0c-.56.204-1.093.355-1.652.508l2.057 4.419.23-3.53zM9.92 10.914c-.152.026-.28.026-.432.026-.152 0-.279 0-.431-.026l-2.744 5.892c.839.153 1.703.254 2.566.28v-.863c0-.33.279-.61.61-.61.328 0 .608.28.608.61v.863c.864-.051 1.727-.127 2.566-.28zm-3.328-1.22l-2.97 6.376c.558.203 1.091.38 1.65.508l2.743-5.918C7.482 10.43 7 10.1 6.593 9.695zm5.766-.024c-.38.432-.889.762-1.422.965l2.743 5.918c.558-.153 1.117-.304 1.65-.508zM9.49 3.981c-1.625 0-2.947 1.346-2.947 2.97 0 1.627 1.322 2.947 2.947 2.947s2.947-1.345 2.947-2.97c0-1.626-1.322-2.947-2.947-2.947zm0 1.244c.94 0 1.701.762 1.701 1.702s-.762 1.701-1.701 1.701c-.94 0-1.701-.762-1.701-1.701 0-.94.761-1.702 1.7-1.702zm0 1.042c-.355 0-.66.305-.66.66 0 .357.305.661.66.661.356 0 .66-.305.66-.66 0-.356-.305-.661-.66-.661zm0-4.698c-.406 0-.736.329-.736.736v.737c.228-.05.482-.077.736-.077s.508.025.736.076v-.736c0-.406-.33-.736-.736-.736z" opacity=".4"/>
</svg>
