<svg xmlns="http://www.w3.org/2000/svg" width="23" height="22" viewBox="0 0 23 22">
    <g fill="#202344" opacity=".4">
        <path d="M18.298 11.043c0 .2-.01.402-.024.603l-.029.296-.005.038c-.009.052-.014.11-.024.162-.067.393-.158.785-.282 1.163-.057.182-.124.363-.196.54.052-.129-.034.077-.053.12-.042.095-.09.191-.138.287-.176.344-.377.679-.602 1-.053.076-.11.152-.167.229.085-.11-.077.09-.106.124-.129.153-.258.302-.397.445-.129.133-.268.263-.406.392-.063.057-.125.11-.192.163-.033.029-.263.21-.148.124-.307.234-.636.45-.976.636-.167.09-.334.177-.507.258-.029.014-.287.124-.148.067-.101.038-.196.077-.296.115-.364.134-.736.234-1.115.311-.105.024-.215.043-.32.057-.043.005-.086.014-.13.019.134-.019.025-.005-.004 0-.22.024-.44.043-.665.047-.402.014-.803-.004-1.2-.047-.144-.014-.034-.005-.005 0-.052-.01-.11-.014-.162-.025-.096-.014-.192-.033-.287-.052-.192-.038-.377-.086-.564-.138-.187-.052-.368-.11-.55-.177-.091-.033-.177-.067-.269-.1-.115-.048.154.071-.033-.015-.057-.024-.115-.052-.172-.076-.345-.158-.675-.345-.99-.555-.158-.106-.311-.21-.46-.325.11.086-.067-.052-.1-.081-.082-.068-.159-.134-.24-.206-.296-.263-.569-.55-.823-.855-.029-.034-.167-.21-.081-.101-.057-.077-.115-.154-.167-.23-.115-.163-.225-.33-.325-.503-.096-.162-.192-.33-.273-.497-.038-.076-.077-.153-.11-.23-.025-.047-.043-.095-.068-.143-.014-.03-.024-.057-.038-.086.03.062.03.072.01.024-.15-.368-.269-.746-.36-1.128-.042-.182-.076-.359-.11-.541-.009-.052-.018-.11-.024-.163.005.03.014.139 0-.004-.014-.11-.024-.22-.033-.33-.03-.411-.03-.828.004-1.239l.03-.296c.004-.029.018-.144 0-.005.004-.042.013-.085.018-.128.034-.215.077-.426.129-.637.09-.372.215-.741.359-1.094-.053.133.047-.11.067-.149.038-.086.081-.172.124-.258.09-.176.187-.354.291-.526.091-.153.192-.301.292-.449.063-.086.12-.172.187-.253-.019.024-.082.1.004-.005.039-.047.082-.095.12-.144.244-.286.503-.559.785-.808l.214-.186c.034-.025.235-.187.125-.106.158-.12.32-.234.487-.345.325-.21.67-.401 1.024-.564.043-.018.249-.105.12-.052.09-.034.176-.072.268-.106.191-.072.383-.133.579-.186.187-.053.377-.101.564-.139.086-.018.172-.033.258-.047.052-.01.11-.019.162-.025.053-.009.043-.004-.029.005.034-.005.068-.01.101-.01.411-.047.823-.062 1.234-.042.187.01.378.024.565.043.038.004.182.024.038.004.043.005.086.014.129.019l.32.057c.388.081.774.187 1.148.325.09.034.177.067.268.106-.129-.053.081.033.12.052.191.086.377.182.564.287.33.182.645.392.947.622-.12-.09.101.081.124.105.072.063.144.12.215.187.149.134.292.268.426.411.124.13.244.258.354.397.034.039.067.082.101.12.024.029.106.138.024.029.063.081.125.167.187.253.215.311.411.636.584.97.043.086.086.172.124.258.019.039.12.282.068.149.076.187.143.377.205.569.124.383.215.77.277 1.162.005.043.014.086.02.129-.02-.134-.006-.025 0 .004.008.11.023.22.033.33-.003.192.002.393.006.594 0 .373.33.736.718.717.387-.018.717-.315.717-.717-.01-1.76-.54-3.52-1.564-4.954-1.033-1.445-2.454-2.54-4.117-3.157C10.704 1.69 6.744 2.76 4.477 5.52 3.33 6.916 2.645 8.604 2.502 10.408c-.139 1.764.296 3.577 1.21 5.089.889 1.468 2.233 2.687 3.807 3.39 1.683.756 3.544.966 5.356.598 3.429-.693 6.222-3.596 6.743-7.063.072-.46.115-.919.115-1.383 0-.373-.33-.736-.717-.717-.393.018-.718.32-.718.72v.001z"/>
        <path d="M14.984 11.043c0 2.145-1.738 3.884-3.883 3.884-2.146 0-3.884-1.74-3.884-3.884 0-2.145 1.738-3.883 3.884-3.883 2.145 0 3.883 1.738 3.883 3.883"/>
        <path d="M14.405 11.043c-.005.703-.201 1.33-.617 1.927-.076.115-.172.225-.306.363-.057.057-.115.115-.177.172-.029.03-.062.057-.09.082.004-.005-.134.11-.077.062-.133.101-.273.192-.416.273-.182.105-.306.162-.464.215-1.358.483-2.779.076-3.716-1.014-.88-1.028-.966-2.63-.253-3.801.704-1.162 2.128-1.794 3.449-1.526.78.158 1.401.53 1.918 1.139.471.558.74 1.343.749 2.108.004.746 1.166.746 1.162 0-.014-1.884-1.205-3.558-2.975-4.203-1.708-.627-3.74-.077-4.893 1.324-1.2 1.46-1.406 3.553-.416 5.185.981 1.61 2.884 2.425 4.726 2.061 2.062-.401 3.54-2.296 3.558-4.367.006-.75-1.156-.75-1.162 0zM11.828 3.152V.856c0-.373-.33-.736-.718-.718-.387.019-.717.316-.717.718v2.296c0 .372.33.736.717.717.387-.019.718-.316.718-.717zM19.016 11.76h2.52c.373 0 .736-.33.717-.717-.018-.388-.315-.717-.717-.717h-2.52c-.373 0-.736.33-.718.717.014.388.311.717.718.717zM3.19 10.326H.947c-.372 0-.736.33-.717.717.019.388.316.717.717.717H3.19c.373 0 .736-.33.717-.717-.018-.392-.315-.717-.717-.717zM10.384 18.954c.004.731.004 1.459.009 2.19 0 .373.33.737.717.718.388-.019.718-.316.718-.718-.005-.731-.005-1.459-.01-2.19 0-.373-.33-.736-.717-.717-.388.018-.717.314-.717.717z"/>
    </g>
</svg>
