<svg xmlns="http://www.w3.org/2000/svg" width="18" height="18" viewBox="0 0 18 18">
    <path fill="#202344" d="M6.469.428H2.975C1.716.43.696 1.45.695 2.708v3.494c.001 1.259 1.021 2.278 2.28 2.28h3.494c1.258-.002 2.278-1.021 2.28-2.28V2.708C8.747 1.45 7.727.43 6.469.428zm1.036 5.773c0 .275-.11.54-.304.733-.195.195-.458.304-.732.304H2.975c-.573 0-1.037-.465-1.037-1.037V2.708c0-.572.464-1.036 1.037-1.036h3.494c.274 0 .537.11.732.304.194.194.304.458.304.732v3.493zm-1.036 3.39H2.975c-1.259.003-2.279 1.022-2.28 2.28v3.494c.001 1.258 1.021 2.278 2.28 2.28h3.494c1.258-.002 2.278-1.022 2.28-2.28v-3.493c-.002-1.259-1.022-2.278-2.28-2.28zm1.036 5.774c0 .274-.11.539-.304.733-.195.194-.458.303-.732.303H2.975c-.573 0-1.037-.464-1.037-1.036v-3.493c0-.572.464-1.037 1.037-1.037h3.494c.274 0 .537.11.732.304.194.194.304.458.304.733v3.493zm8.126-5.773h-3.493c-1.258.002-2.278 1.021-2.28 2.28v3.493c.002 1.258 1.022 2.278 2.28 2.28h3.493c1.258-.002 2.278-1.022 2.28-2.28v-3.493c-.002-1.259-1.022-2.278-2.28-2.28zm1.037 5.773c0 .274-.11.539-.304.733-.195.194-.458.303-.733.303h-3.493c-.572 0-1.036-.464-1.036-1.036v-3.493c0-.572.464-1.037 1.036-1.037h3.493c.275 0 .539.11.733.304.195.194.304.458.304.733v3.493zm-3.598-9.42c.249.136.528.207.812.206.162 0 .324-.022.48-.068.657-.195 1.134-.765 1.208-1.447.073-.682-.27-1.342-.87-1.673-.603-.328-1.345-.262-1.88.168-.535.43-.759 1.14-.567 1.8.125.434.42.799.817 1.013zm.414-1.708c.088-.163.266-.256.45-.236.183.018.337.147.389.324.052.177-.008.37-.152.484-.145.116-.345.134-.506.044-.219-.12-.3-.396-.18-.616zm-3.11.494c-.223.266-.389.575-.485.908-.049.168-.025.349.065.498l.628 1.032h.001c.091.15.24.254.413.287.34.068.691.064 1.029-.014l.343.187c.117.328.303.627.544.876.117.124.28.193.45.193h.016l1.208-.028c.175-.004.34-.082.456-.213.23-.262.401-.568.504-.901l.332-.203c.342.063.693.052 1.03-.033.17-.042.314-.153.398-.306l.58-1.06c.084-.154.099-.336.042-.502-.112-.328-.292-.63-.528-.883l-.008-.391v-.001c.224-.264.39-.574.486-.908.049-.167.025-.348-.066-.498l-.628-1.032c-.092-.15-.242-.255-.415-.288-.34-.066-.69-.061-1.03.015l-.342-.188c-.118-.327-.303-.625-.544-.875-.122-.124-.29-.194-.464-.192L13.181.24c-.176.005-.34.081-.454.213-.23.261-.401.568-.504.9l-.332.203c-.342-.062-.692-.05-1.03.033-.17.041-.314.152-.398.307l-.58 1.06v-.001c-.085.154-.1.336-.042.502.111.328.291.63.527.885l.007.39zm1.032-1.97c.06-.004.12-.004.18 0 .203.142.469.15.68.022l.877-.534c.21-.128.326-.369.294-.614.022-.054.05-.108.083-.16l.592-.013c.035.05.065.102.09.156-.021.246.105.48.322.599l.9.492c.217.12.483.099.678-.052.06-.008.12-.01.18-.008l.308.507v-.001c-.025.055-.056.107-.09.156-.223.105-.363.331-.358.578l.024 1.026c.005.247.156.467.384.56.036.05.069.1.098.153l-.285.52c-.06.006-.12.006-.18 0-.203-.14-.47-.149-.68-.02l-.877.533c-.211.128-.327.368-.295.613-.023.056-.05.109-.083.16l-.593.014c-.034-.05-.064-.101-.09-.156.02-.246-.105-.481-.321-.6l-.9-.493c-.218-.118-.483-.097-.679.053-.06.007-.12.01-.18.01l-.305-.508c.026-.054.057-.106.091-.156.223-.105.363-.33.358-.577l-.024-1.026c-.005-.247-.156-.467-.384-.561-.037-.049-.069-.1-.098-.153l.283-.52z" opacity=".4"/>
</svg>
