<svg xmlns="http://www.w3.org/2000/svg" width="118" height="79" viewBox="0 0 118 79">
    <g fill="#202344" opacity=".07">
        <path d="M57.62 28.893C57.62 13.105 44.823.308 29.034.308 13.246.308 1.79 12.66.45 28.394c-2.04 24.003 16.192 44.1 38.33 50.493-7.546-4.561-12.807-12.496-13.688-21.728 1.291.186 2.598.312 3.938.312 15.793.005 28.59-12.792 28.59-28.58v.002zM118 28.893C118 13.105 105.203.308 89.415.308S62.169 12.66 60.83 28.394c-2.04 24.003 16.192 44.1 38.336 50.493-7.547-4.561-12.808-12.496-13.688-21.728 1.29.186 2.603.312 3.937.312C105.203 57.476 118 44.679 118 28.89v.002z" transform="matrix(-1 0 0 1 118 0)"/>
    </g>
</svg>
