<svg xmlns="http://www.w3.org/2000/svg" width="27" height="27" viewBox="0 0 27 27">
    <path fill="#F57F20" d="M.195 11.256c0 6.099 4.962 11.06 11.06 11.06 2.615 0 5.018-.912 6.913-2.434l6.234 6.234c.237.237.547.355.857.355.31 0 .62-.118.857-.355.474-.473.474-1.24 0-1.714l-6.234-6.234c1.52-1.895 2.435-4.298 2.435-6.912 0-6.099-4.962-11.06-11.061-11.06-6.1 0-11.06 4.96-11.06 11.06zm11.06 8.636c-4.761 0-8.635-3.874-8.635-8.636 0-4.762 3.874-8.636 8.636-8.636 4.762 0 8.636 3.874 8.636 8.636 0 4.762-3.874 8.636-8.636 8.636z"/>
</svg>
