<svg xmlns="http://www.w3.org/2000/svg" width="24" height="24" viewBox="0 0 24 24">
    <path fill="#F9FAFF" d="M19.326 17.81c.96.96.96 2.35 0 3.36l-1.515 1.517c-.606.605-1.34.96-2.198 1.036-.152.025-.303.025-.455.025-1.163 0-2.198-.328-2.905-.605-1.945-.708-3.714-1.795-5.634-3.385-2.324-1.947-4.143-4.271-5.432-6.924-.48-1.036-1.06-2.4-1.162-3.941-.076-1.238.328-2.248 1.162-3.032l.026-.026c.252-.227.505-.48.758-.732.176-.202.379-.379.58-.581 1.037-.985 2.4-.985 3.411.026l2.4 2.4c.48.454.758 1.036.758 1.642 0 .631-.252 1.212-.758 1.718l-1.49 1.49c-.353.353-.91.353-1.263 0-.353-.353-.353-.91 0-1.263l1.49-1.49c.152-.152.227-.303.227-.455 0-.152-.126-.303-.227-.405L4.674 5.759c-.329-.328-.606-.303-.935.026-.177.177-.353.329-.53.53-.28.28-.556.582-.885.86-.455.429-.632.91-.581 1.591.076 1.238.58 2.4.985 3.284 1.162 2.426 2.829 4.548 4.952 6.316 1.82 1.466 3.436 2.45 5.179 3.108 1.036.379 1.844.53 2.602.48.43-.05.784-.203 1.111-.506l1.49-1.49c.38-.405.177-.682 0-.884l-.025-.026c-.253-.252-.506-.505-.758-.783-.152-.127-.279-.279-.43-.43l-1.186-1.187c-.353-.353-.581-.353-.934 0l-.38.38c-.378.352-.707.707-1.06 1.086l-.026.025c-.555.556-1.11.354-1.289.303-.025 0-.05-.025-.05-.025-.783-.329-1.49-.758-2.374-1.44-.859-.708-1.592-1.415-2.248-2.148-.329-.378-.279-.934.076-1.237.379-.329.934-.278 1.237.076.581.682 1.238 1.313 2.021 1.945.582.455 1.087.808 1.592 1.036.278-.303.581-.581.859-.858l.379-.38c1.036-1.035 2.4-1.035 3.436 0l1.187 1.188.405.405c.277.251.554.528.833.807zm-7.73-11.292c1.414.227 2.702.91 3.713 1.92 1.01 1.011 1.692 2.3 1.92 3.714.076.43.455.732.859.732h.152c.48-.076.808-.53.732-1.01-.303-1.769-1.137-3.385-2.426-4.674-1.289-1.289-2.905-2.122-4.673-2.426-.48-.076-.935.253-1.011.733-.075.48.254.935.733 1.011zm8.16-2.501C17.658 1.92 15.006.53 12.1.05c-.48-.076-.935.253-1.011.733-.076.48.253.934.732 1.01 2.527.43 4.85 1.642 6.695 3.461 1.844 1.844 3.032 4.143 3.46 6.695.077.429.456.732.86.732.05 0 .1 0 .151-.026.48-.076.809-.53.733-1.01-.505-2.903-1.869-5.532-3.966-7.628z"/>
</svg>
